<?xml version="1.0" standalone="no"?>
<!DOCTYPE svg PUBLIC "-//W3C//DTD SVG 20010904//EN"
 "http://www.w3.org/TR/2001/REC-SVG-20010904/DTD/svg10.dtd">
<svg version="1.0" xmlns="http://www.w3.org/2000/svg"
 width="738.000000pt" height="723.000000pt" viewBox="0 0 738.000000 723.000000"
 preserveAspectRatio="xMidYMid meet">
<metadata>
Created by potrace 1.16, written by Peter Selinger 2001-2019
</metadata>
<g transform="translate(0.000000,723.000000) scale(0.100000,-0.100000)"
fill="#000000" stroke="none">
<path d="M3400 6869 c-266 -25 -403 -48 -562 -95 -65 -19 -126 -34 -135 -34
-21 0 -203 -68 -218 -81 -5 -5 -18 -9 -29 -9 -16 0 -174 -71 -258 -116 -14 -8
-59 -31 -100 -52 -77 -40 -160 -90 -168 -102 -3 -4 -15 -11 -28 -15 -13 -4
-38 -19 -55 -35 -18 -15 -46 -36 -64 -46 -34 -21 -181 -132 -227 -173 -15 -14
-96 -94 -180 -177 -140 -140 -191 -196 -282 -314 -19 -25 -44 -55 -54 -66 -11
-12 -20 -27 -20 -33 0 -5 -13 -25 -29 -43 -16 -18 -37 -49 -48 -68 -10 -19
-32 -55 -48 -80 -16 -25 -49 -83 -73 -130 -24 -47 -51 -92 -58 -101 -8 -8 -14
-22 -14 -30 0 -8 -20 -55 -45 -104 -25 -50 -45 -100 -45 -112 0 -12 -4 -24 -9
-27 -5 -3 -12 -18 -16 -33 -3 -16 -13 -41 -20 -58 -30 -66 -45 -109 -45 -129
0 -11 -9 -46 -19 -76 -49 -149 -85 -354 -112 -650 -14 -149 -6 -427 16 -585 9
-60 20 -147 25 -193 6 -45 24 -133 41 -195 18 -62 36 -130 42 -152 14 -60 46
-154 72 -210 12 -27 25 -63 29 -80 7 -29 66 -160 108 -240 65 -124 117 -216
136 -240 12 -15 22 -34 22 -41 0 -7 6 -19 13 -26 7 -7 36 -47 64 -88 28 -41
62 -88 77 -103 14 -15 33 -41 41 -58 9 -16 19 -29 23 -29 4 0 25 -21 45 -47
20 -27 73 -86 117 -133 44 -46 80 -88 80 -92 0 -4 6 -8 13 -8 6 0 32 -20 57
-44 91 -91 141 -136 149 -136 4 0 30 -20 57 -45 27 -25 52 -45 57 -45 5 0 27
-15 50 -34 23 -18 67 -49 97 -67 30 -18 62 -40 70 -47 8 -8 26 -20 40 -26 14
-6 50 -26 80 -44 68 -41 63 -38 186 -101 56 -28 109 -51 118 -51 9 0 24 -4 34
-10 36 -20 152 -70 179 -76 15 -3 80 -24 144 -44 64 -21 133 -41 155 -45 21
-4 91 -17 154 -30 237 -48 361 -60 615 -59 257 0 384 13 604 59 64 14 126 25
139 25 12 0 84 20 159 45 74 25 142 45 150 45 8 0 33 8 56 19 23 10 71 31 107
45 154 65 472 233 535 284 15 12 33 22 40 22 7 0 23 10 36 23 13 13 53 44 89
69 36 25 75 56 87 67 12 12 26 21 30 21 5 0 50 41 101 90 52 50 97 90 102 90
4 0 20 15 35 32 15 18 64 73 109 121 44 49 84 97 88 108 4 10 11 19 16 19 5 0
36 37 68 81 32 45 66 89 75 98 9 9 19 25 23 37 3 11 14 29 24 40 20 22 72 101
72 109 0 3 20 37 45 75 25 38 45 73 45 79 0 5 16 37 34 70 19 34 51 100 71
148 51 123 161 453 181 543 9 41 22 102 29 136 43 199 49 272 48 614 0 351 -7
428 -53 628 -11 48 -27 121 -36 163 -8 42 -31 121 -50 175 -20 54 -40 116 -45
137 -5 21 -14 45 -19 55 -16 28 -70 152 -70 160 0 12 -39 91 -66 134 -13 21
-24 43 -24 49 0 6 -20 42 -45 80 -25 38 -45 76 -45 84 0 7 -4 16 -9 20 -11 6
-91 124 -91 133 0 3 -18 27 -40 53 -22 26 -45 59 -51 73 -7 14 -15 26 -19 26
-4 0 -27 26 -52 58 -121 153 -398 425 -508 499 -14 9 -42 31 -63 50 -20 18
-44 33 -52 33 -7 0 -18 6 -22 13 -9 14 -97 77 -109 77 -3 0 -27 15 -53 33 -25
18 -80 50 -121 71 -41 21 -86 47 -99 57 -13 11 -30 19 -38 19 -7 0 -53 20
-101 44 -48 25 -100 48 -117 52 -16 4 -52 17 -80 29 -89 40 -214 77 -420 125
-281 67 -674 95 -945 69z m-953 -708 c12 -14 23 -37 23 -51 0 -14 7 -36 15
-50 17 -30 38 -73 60 -122 9 -21 17 -38 19 -38 2 0 29 9 61 20 32 11 66 20 77
20 25 0 58 -36 57 -62 0 -13 -13 -33 -29 -46 -23 -18 -33 -21 -49 -12 -18 9
-20 6 -27 -37 -3 -27 -11 -54 -17 -61 -8 -10 1 -24 32 -56 27 -27 39 -46 32
-50 -17 -11 -13 -33 14 -76 28 -44 31 -55 13 -44 -7 4 -27 7 -45 6 -26 -2 -33
1 -34 15 -1 10 -6 -2 -13 -26 -12 -48 -18 -46 -50 16 -9 18 -29 39 -44 47 -27
14 -29 13 -56 -21 -23 -29 -34 -34 -58 -31 -16 3 -31 1 -34 -4 -3 -4 1 -8 8
-8 8 0 6 -5 -5 -11 -9 -6 -15 -14 -13 -18 3 -5 -6 -6 -19 -3 -15 2 -25 0 -25
-7 0 -7 -4 -9 -10 -6 -5 3 -10 2 -10 -3 0 -10 -106 -32 -155 -32 -37 0 -67 35
-63 75 2 24 9 31 33 36 17 4 24 7 16 8 -30 2 73 62 125 73 29 6 54 14 54 19 0
5 7 6 16 2 13 -5 13 -8 2 -15 -10 -8 -10 -9 2 -5 8 2 15 11 15 19 0 9 8 25 18
35 9 11 17 25 17 32 0 6 7 14 15 17 13 5 12 10 -5 34 -15 21 -20 44 -20 90 0
33 -4 59 -9 56 -14 -9 -20 46 -14 121 l6 70 -30 13 c-26 12 -30 19 -27 44 1
17 3 34 3 38 1 6 35 21 56 23 6 1 16 -3 23 -8 8 -7 12 -4 13 9 0 14 2 15 6 4
3 -8 17 -26 30 -39z m2468 -81 c-3 -5 3 -10 13 -10 20 0 32 -18 32 -47 0 -9
-18 -35 -40 -59 -26 -28 -40 -53 -40 -70 0 -23 -3 -26 -28 -22 -30 4 -56 -15
-57 -42 0 -8 7 -29 17 -46 30 -53 24 -91 -31 -184 -5 -8 -13 -27 -19 -41 -11
-29 -62 -47 -62 -23 0 12 -13 19 -23 12 -2 -2 -11 3 -19 10 -9 7 -22 10 -31 6
-10 -3 -18 2 -22 17 -5 15 -9 18 -15 9 -4 -7 -13 -9 -20 -5 -10 6 -9 10 4 17
9 5 16 18 16 29 0 11 -5 17 -10 14 -6 -4 -8 -10 -5 -15 5 -9 -33 -35 -40 -28
-2 2 1 21 6 43 6 22 14 58 17 79 4 22 13 41 20 44 7 2 11 -2 10 -8 -4 -15 47
-34 67 -26 8 3 15 15 15 26 0 26 -47 71 -66 63 -8 -3 -12 -8 -9 -11 6 -6 -34
-52 -46 -52 -13 0 -30 39 -35 77 -4 31 -3 34 11 23 13 -11 17 -7 30 23 17 41
18 50 7 43 -4 -2 -7 18 -5 45 2 48 -10 67 -21 32 -3 -11 -4 -7 -3 7 3 38 31
32 35 -8 3 -28 7 -33 25 -30 32 4 47 -9 47 -41 0 -29 20 -81 32 -81 15 0 46
52 41 70 -3 11 0 20 6 20 6 0 11 7 11 15 0 8 3 15 8 15 7 0 50 35 98 80 31 29
93 52 79 30z m-2069 -322 c-3 -15 0 -31 7 -36 7 -6 13 -22 15 -36 2 -30 -27
-43 -58 -26 -11 6 -20 7 -20 3 -1 -4 -3 -25 -6 -47 -4 -24 -2 -36 4 -32 6 3 8
-2 5 -12 -3 -12 4 -22 21 -30 14 -6 26 -17 25 -24 0 -10 -2 -10 -6 -1 -3 10
-8 9 -20 -2 -31 -31 -43 -18 -43 44 0 33 -4 63 -10 66 -16 10 -12 38 14 89 13
27 27 60 31 74 15 59 53 31 41 -30z m1329 22 c-6 -10 13 -66 51 -157 16 -35
18 -83 5 -83 -5 0 -19 -15 -32 -34 -14 -21 -29 -32 -38 -29 -14 4 -14 4 -1 -6
11 -8 18 -7 26 4 6 8 17 15 23 15 7 0 9 5 6 10 -3 6 -1 10 4 10 6 0 11 -18 11
-40 0 -22 3 -40 8 -40 10 0 47 -69 47 -89 0 -9 6 -15 14 -13 8 2 11 -3 8 -12
-14 -35 46 -136 80 -136 7 0 21 -9 30 -20 10 -11 22 -20 29 -20 18 0 45 -36
39 -52 -5 -12 2 -17 29 -20 20 -2 43 0 51 5 9 5 30 6 48 2 25 -5 29 -4 17 5
-12 9 -9 10 13 5 16 -3 35 -1 42 5 14 12 55 5 55 -8 0 -4 -11 -25 -23 -47 -20
-34 -27 -40 -52 -37 -17 1 -37 3 -45 4 -8 0 -22 -2 -31 -6 -9 -4 -23 -1 -30 6
-15 14 -29 19 -69 25 -20 3 -31 -4 -52 -36 -16 -21 -28 -48 -28 -60 0 -11 -5
-23 -10 -26 -7 -4 -6 -13 1 -26 7 -15 7 -24 0 -33 -6 -8 -9 -20 -5 -29 11 -30
-34 -87 -70 -87 -14 0 -22 -6 -23 -19 -1 -14 3 -18 13 -14 10 4 12 0 8 -11 -3
-9 -2 -16 4 -16 6 0 22 -20 35 -45 19 -32 22 -45 12 -45 -8 0 -16 8 -20 19 -3
10 -17 31 -30 45 -28 30 -58 35 -48 9 5 -15 3 -14 -10 2 -29 36 -14 151 18
139 7 -3 16 0 21 7 4 7 3 10 -4 5 -6 -3 -15 1 -20 10 -11 20 -14 16 -45 -66
-13 -36 -34 -87 -47 -115 -12 -27 -23 -54 -24 -61 -1 -7 -8 -19 -15 -28 -12
-14 -10 -15 20 -10 19 3 50 10 69 15 68 17 97 4 43 -19 l-28 -12 30 6 c30 5
113 6 150 1 12 -1 19 3 17 11 -1 8 2 11 8 7 15 -10 12 12 -5 29 -8 8 -15 18
-15 22 0 4 -12 23 -27 43 -15 20 -19 30 -9 22 10 -8 31 -34 46 -57 24 -34 28
-48 23 -80 -6 -37 -35 -90 -58 -106 -5 -4 -22 -8 -37 -8 -18 0 -37 -10 -53
-29 -30 -33 -68 -41 -143 -32 -58 8 -78 -3 -69 -38 3 -13 0 -18 -7 -15 -22 8
-54 -29 -59 -69 -5 -28 -2 -40 9 -44 11 -4 14 -14 9 -32 -7 -34 -38 -95 -49
-100 -4 -2 -2 -7 5 -12 11 -8 11 -11 -3 -20 -23 -13 -25 -51 -2 -42 13 5 13 7
2 14 -30 20 47 45 165 52 62 4 79 2 86 -10 6 -12 9 -8 14 15 3 16 13 37 22 45
23 24 32 77 12 77 -9 0 -23 8 -33 17 -15 16 -15 17 2 24 16 6 15 8 -7 8 -14 1
-29 -2 -33 -6 -23 -23 -76 -9 -76 20 0 33 71 70 150 78 75 7 150 37 150 59 1
8 7 29 15 45 14 30 14 30 10 3 -2 -15 -1 -36 2 -48 5 -20 7 -20 30 -4 14 9 42
17 63 18 32 2 42 -2 59 -25 27 -36 26 -41 -4 -69 -14 -13 -25 -29 -25 -35 0
-17 -54 -72 -90 -90 -17 -9 -46 -16 -65 -17 -19 -1 -32 -5 -29 -10 3 -4 0 -24
-7 -43 -10 -27 -16 -32 -26 -23 -7 6 -13 7 -13 3 0 -14 63 -119 112 -187 53
-75 58 -100 28 -158 -21 -41 -18 -72 6 -63 8 3 18 -4 24 -18 6 -13 19 -40 30
-59 10 -19 14 -37 10 -40 -4 -3 -13 -24 -19 -47 -10 -38 -9 -44 12 -67 14 -14
33 -26 45 -26 17 0 19 4 13 33 -5 18 -12 41 -18 52 -6 11 -8 26 -6 33 3 8 -2
10 -14 6 -15 -5 -15 -4 -3 5 29 21 45 12 63 -35 9 -25 14 -50 11 -55 -3 -5 -2
-9 3 -9 4 0 8 -14 9 -31 1 -22 -2 -27 -8 -17 -7 9 -8 7 -3 -7 3 -11 7 -24 8
-30 1 -5 10 -18 20 -29 10 -11 15 -26 13 -32 -3 -7 4 -14 15 -17 13 -3 19 -14
19 -32 0 -17 4 -24 12 -19 6 4 8 3 5 -3 -3 -5 12 -26 34 -47 21 -21 39 -34 39
-27 0 6 -5 11 -11 11 -14 0 -7 42 8 48 7 2 17 -9 23 -25 5 -15 15 -36 20 -45
6 -10 10 -25 10 -33 0 -9 9 -15 21 -15 18 0 20 -4 14 -27 -14 -58 -11 -61 48
-55 64 6 96 20 76 33 -8 5 -9 9 -4 9 6 0 16 -4 24 -9 17 -11 43 -3 35 10 -3 5
0 9 5 9 6 0 11 -4 11 -8 0 -13 -40 -52 -53 -52 -56 -1 -153 -15 -158 -22 -16
-25 -47 8 -85 90 -40 84 -43 87 -75 87 -33 0 -34 1 -37 44 -3 36 0 43 12 38
10 -4 13 -1 9 9 -6 16 -8 17 -90 18 -35 1 -63 -2 -63 -6 0 -5 6 -8 13 -9 9 0
9 -2 0 -6 -13 -5 -64 -98 -58 -105 2 -1 -33 -2 -78 -1 -56 1 -74 -1 -57 -7 21
-7 22 -8 5 -10 -35 -3 46 -28 93 -29 51 -1 102 -28 102 -53 0 -9 5 -20 10 -23
25 -15 -5 -125 -34 -125 -19 0 -20 -22 -3 -53 6 -12 13 -24 14 -25 4 -8 73 -7
77 1 3 4 3 2 2 -5 -2 -7 -11 -11 -21 -10 -15 3 -17 1 -7 -11 17 -20 -14 -111
-34 -103 -12 5 -12 2 -2 -17 7 -12 12 -25 13 -29 0 -3 3 -10 8 -14 4 -4 7 -16
7 -26 0 -10 3 -18 8 -18 13 0 35 -43 38 -75 3 -22 1 -26 -6 -15 -9 13 -10 13
-10 0 0 -8 9 -21 20 -28 16 -10 20 -10 20 0 0 7 11 0 24 -17 13 -16 22 -33 20
-36 -2 -4 3 -12 11 -19 12 -10 21 -10 44 0 28 11 29 14 18 38 -6 15 -19 33
-27 40 -13 11 -12 12 8 7 19 -6 22 -3 22 23 0 26 4 30 39 36 70 11 126 -3 152
-37 15 -21 18 -29 7 -24 -12 4 -14 1 -11 -14 3 -11 0 -19 -7 -19 -7 0 -10 -7
-6 -16 6 -15 -37 -68 -47 -58 -2 3 -23 2 -45 -2 l-41 -6 14 -35 c8 -19 13 -38
11 -42 -2 -3 12 -13 30 -22 19 -9 34 -13 34 -8 0 5 6 6 14 3 9 -4 18 9 27 42
13 43 51 84 78 84 19 0 12 -30 -14 -58 -25 -27 -36 -92 -15 -92 6 0 10 -15 11
-32 1 -31 1 -32 9 -8 8 24 8 24 9 -5 1 -28 4 -31 36 -31 25 0 42 -8 63 -30 56
-59 47 -91 -30 -100 -23 -3 -45 -7 -50 -10 -4 -3 -25 0 -47 7 -26 8 -38 16
-34 25 3 8 1 14 -5 14 -5 0 -12 -9 -15 -20 -3 -11 -13 -20 -24 -20 -16 1 -16
2 -2 13 14 10 14 14 3 25 -12 11 -14 9 -15 -8 -1 -11 -2 -26 -3 -32 0 -7 -11
-14 -23 -16 -13 -2 -23 -7 -23 -12 0 -5 27 1 60 13 50 18 62 20 69 8 5 -8 14
-10 21 -6 9 5 11 4 6 -4 -8 -12 30 -50 50 -51 6 0 17 -7 24 -15 7 -9 22 -12
39 -9 22 5 33 0 54 -26 15 -17 27 -40 27 -51 0 -11 17 -30 40 -45 22 -15 43
-37 46 -50 3 -13 12 -28 20 -35 41 -33 -10 -39 -88 -9 -29 11 -65 20 -80 20
-16 0 -28 5 -28 10 0 6 -5 10 -10 10 -13 0 -19 -5 -82 -60 -33 -29 -54 -40
-71 -38 -22 3 -23 6 -14 28 5 14 11 32 12 40 2 8 6 34 10 57 6 37 5 42 -16 53
-40 21 -67 50 -62 69 2 10 -3 23 -11 30 -9 8 -16 20 -16 27 0 13 -58 50 -72
46 -5 -1 -8 7 -8 17 0 26 -121 148 -154 157 -26 6 -43 4 -78 -11 -11 -4 -21 2
-34 24 -10 17 -26 34 -36 37 -24 7 -23 35 2 41 29 8 25 42 -6 53 -42 16 -53
12 -70 -30 -18 -44 -18 -44 -45 -30 -10 6 -19 8 -19 5 0 -9 61 -59 82 -67 11
-4 17 -12 14 -17 -3 -5 1 -12 10 -15 8 -3 12 -2 9 4 -14 23 26 8 42 -16 10
-14 26 -33 36 -42 9 -9 17 -22 17 -28 0 -6 7 -17 15 -24 20 -17 20 -96 0 -104
-9 -3 -29 8 -50 29 -19 19 -40 35 -46 35 -7 0 -32 12 -57 26 -24 14 -52 24
-62 21 -11 -3 -21 1 -24 9 -10 26 -23 14 -30 -26 -7 -43 -25 -80 -39 -80 -4 0
-5 5 -2 10 3 6 1 10 -6 10 -7 0 -9 -11 -5 -34 11 -59 -57 -139 -90 -106 -5 5
-19 11 -31 13 -25 4 -53 25 -53 41 -1 6 -21 31 -45 56 -56 57 -58 73 -7 64 47
-8 47 -8 44 -51 -3 -32 11 -41 14 -10 0 7 2 20 2 30 1 10 7 15 12 12 15 -9 12
7 -5 29 -19 25 -19 53 -1 63 14 9 28 121 15 128 -3 3 -6 -3 -5 -12 0 -10 -3
-18 -9 -18 -5 -1 -20 -5 -33 -9 -15 -5 -29 -3 -38 5 -13 11 -15 10 -14 -2 9
-62 -17 -94 -51 -63 -20 18 -26 54 -10 54 5 0 7 9 4 21 -5 18 -2 19 23 14 23
-5 26 -4 14 5 -12 10 -11 11 8 7 12 -3 22 -2 22 3 0 4 18 27 40 50 32 34 45
41 65 38 14 -3 28 -1 31 3 9 16 34 9 34 -8 0 -13 2 -15 8 -5 5 7 17 10 28 7
17 -6 17 -5 2 5 -16 10 -16 12 2 30 11 11 26 21 33 22 6 0 -8 4 -33 7 -42 6
-45 8 -42 34 3 25 1 27 -36 27 -23 0 -43 -5 -45 -12 -4 -8 -6 -7 -6 3 -1 9 -8
19 -16 23 -8 3 -15 11 -15 17 0 8 4 8 15 -1 12 -10 15 -10 16 1 0 8 4 5 10 -6
l9 -20 -3 20 c-2 11 -9 19 -16 17 -10 -2 -12 5 -6 25 3 15 11 30 16 31 5 2 6
9 3 14 -5 8 6 9 34 6 38 -5 41 -4 53 24 8 21 18 28 33 26 12 -1 34 9 49 22 38
33 67 44 67 25 0 -8 -6 -12 -13 -9 -15 5 -55 -72 -43 -83 10 -10 27 19 21 37
-4 11 -1 10 9 -2 13 -18 32 -25 22 -9 -9 14 18 20 31 6 8 -9 7 -20 -4 -44 -9
-17 -18 -29 -21 -26 -6 6 -57 -46 -64 -65 -2 -7 -18 -13 -34 -14 -17 0 -31 -7
-31 -13 0 -16 51 -17 78 -3 25 14 25 -2 -1 -18 -11 -7 -20 -18 -20 -25 0 -8 4
-7 10 3 9 14 12 12 9 -6 -2 -17 26 -21 35 -5 6 10 20 32 32 49 11 17 29 59 40
92 10 33 25 60 31 60 7 0 13 5 13 10 0 9 -14 14 -32 11 -5 0 -8 7 -9 16 0 15
-2 15 -9 -2 -5 -11 -9 -14 -9 -7 -1 7 -5 10 -11 7 -5 -3 -10 0 -10 9 0 21 -44
116 -53 116 -5 0 -11 -9 -14 -20 -6 -24 -26 -30 -115 -36 -78 -4 -81 -2 -114
64 -9 20 -13 44 -9 59 l6 25 29 -38 c17 -20 30 -45 30 -54 0 -14 6 -17 23 -13
12 3 28 11 36 17 11 8 13 8 7 -1 -4 -8 -2 -13 6 -14 10 0 10 -2 1 -6 -23 -9
-14 -20 12 -15 24 4 36 22 14 22 -5 0 -7 4 -4 10 9 15 -46 24 -67 11 -15 -9
-18 -8 -18 8 0 26 17 36 35 21 8 -7 15 -9 16 -4 2 25 10 58 18 72 6 10 0 27
-18 53 -25 37 -44 50 -39 28 2 -6 -5 -13 -15 -14 -14 -3 -16 0 -7 10 6 7 7 15
3 17 -4 3 -2 3 5 2 7 -2 15 3 18 11 4 8 9 13 13 11 4 -3 13 -1 21 4 10 6 20 0
36 -21 19 -26 23 -27 34 -14 13 16 13 16 -42 79 -10 11 -18 25 -18 32 0 7 -10
20 -22 28 -12 9 -18 16 -13 16 6 0 -4 13 -21 28 -17 15 -38 41 -48 59 -24 47
-41 32 -55 -47 -7 -38 -21 -92 -32 -120 -25 -67 -25 -107 1 -115 11 -3 20 -14
21 -23 0 -11 2 -13 6 -4 3 7 1 18 -5 25 -5 7 -14 26 -20 43 -10 30 -9 32 35
53 24 12 48 19 53 16 4 -2 13 2 20 10 8 9 8 15 2 15 -6 0 -13 -5 -15 -10 -3
-6 -4 -5 -3 2 1 7 17 14 35 16 26 3 39 -4 73 -37 25 -25 35 -41 25 -41 -8 0
-17 7 -21 15 -4 11 -16 14 -47 10 -37 -5 -40 -4 -29 10 11 13 10 15 -1 10 -17
-7 -40 -55 -33 -67 4 -6 -3 -5 -15 1 -11 7 -21 19 -21 29 0 15 -2 15 -10 2 -7
-11 -5 -19 8 -30 25 -22 25 -37 2 -70 -11 -15 -20 -34 -20 -40 0 -8 -9 -11
-25 -8 -17 4 -31 -2 -46 -18 -18 -19 -33 -24 -75 -24 -38 0 -53 4 -58 16 -3 8
-10 13 -15 10 -5 -4 -8 11 -6 34 2 22 -1 40 -6 40 -5 0 -9 5 -9 11 0 5 5 7 10
4 12 -7 12 -3 4 19 -5 13 -16 15 -53 10 -36 -5 -50 -2 -60 10 -10 12 -11 19
-2 29 6 8 8 17 4 20 -12 12 -23 7 -23 -10 0 -15 -2 -15 -14 2 -8 11 -12 26 -9
35 4 12 3 12 -5 1 -8 -11 -11 -10 -16 7 -5 14 -13 19 -24 16 -11 -4 -13 -3 -5
3 13 9 5 66 -8 57 -12 -7 -12 9 0 22 6 5 -7 10 -35 11 -24 1 -44 0 -44 -2 0
-17 72 -129 82 -127 7 2 10 0 6 -3 -4 -4 -3 -16 3 -27 15 -29 20 -17 9 22
l-10 33 21 -22 c13 -13 19 -32 17 -49 -3 -31 -19 -46 -30 -29 -8 12 -12 -7 -9
-43 0 -10 -1 -11 -5 -2 -3 6 -10 12 -15 12 -12 0 -43 33 -47 50 -2 8 -13 27
-25 44 -12 17 -21 37 -19 43 3 12 -3 22 -35 58 -7 7 -13 18 -13 24 0 6 -22 -4
-49 -21 -35 -24 -52 -44 -61 -70 -7 -21 -16 -35 -20 -33 -8 5 -24 -24 -22 -37
1 -4 -8 -4 -19 1 -15 5 -23 18 -26 42 -5 45 -5 44 7 119 14 88 1 114 -50 105
-52 -11 -163 -13 -185 -4 -13 5 0 8 40 9 33 0 78 7 100 15 22 8 48 15 57 15 9
0 20 5 24 11 4 8 0 9 -15 4 -12 -3 -21 -3 -20 2 7 41 -3 62 -33 69 -18 4 -35
7 -38 7 -3 0 -16 10 -28 22 l-24 23 32 16 c18 8 37 13 42 10 6 -4 14 -1 18 7
7 10 11 10 24 0 9 -8 16 -9 16 -3 0 6 14 13 30 17 17 4 30 11 30 16 0 5 9 4
20 -3 11 -7 18 -18 16 -25 -3 -7 3 -11 14 -10 14 1 31 23 55 72 19 39 35 74
35 77 0 4 -17 5 -37 2 -30 -3 -34 -2 -20 7 9 5 17 15 17 20 0 6 -4 7 -10 4 -6
-4 -10 5 -10 19 0 22 5 26 30 26 16 0 33 -7 38 -16 14 -25 101 -23 119 1 20
28 16 39 -18 59 -18 11 -29 14 -25 7 4 -6 0 -14 -8 -17 -9 -3 -16 -11 -16 -16
0 -7 5 -6 14 1 8 7 22 8 36 3 30 -11 11 -25 -42 -29 -44 -5 -45 -1 -19 36 13
18 17 32 10 42 -7 11 -9 11 -9 -3 0 -10 -4 -18 -10 -18 -5 0 -12 -11 -16 -24
-5 -22 -8 -23 -57 -13 -29 5 -103 7 -166 4 -113 -5 -136 -13 -124 -43 3 -7 -3
-23 -12 -36 -15 -20 -17 -20 -11 -3 6 20 6 20 -9 1 -8 -11 -15 -14 -15 -8 0 7
-4 12 -8 12 -5 0 -8 -13 -8 -30 0 -16 4 -30 9 -30 5 0 -7 -18 -27 -40 -20 -22
-36 -43 -36 -48 0 -24 -121 -129 -138 -118 -4 2 -20 -2 -37 -10 l-30 -14 32 3
c25 3 30 0 22 -9 -11 -13 -112 -8 -117 6 -2 5 -11 7 -20 4 -9 -2 -5 1 9 8 14
7 32 18 40 24 8 6 35 14 61 17 66 9 128 43 128 71 0 12 5 27 12 34 9 9 9 12 0
12 -7 0 -12 8 -12 18 0 14 2 15 10 2 5 -8 10 -10 10 -5 0 6 -4 16 -9 24 -7 11
-10 9 -16 -8 -13 -41 -17 -13 -4 31 14 49 27 70 40 62 5 -3 6 1 3 9 -4 11 7
14 56 12 43 -1 60 2 60 11 0 7 -5 16 -10 19 -6 4 -8 11 -5 16 4 5 0 9 -7 9
-10 0 -10 2 -1 8 9 5 6 12 -10 21 -19 12 -20 12 -10 -1 10 -11 9 -19 -2 -35
-8 -11 -12 -23 -8 -26 3 -4 -9 -2 -28 3 -19 6 -36 10 -39 10 -6 0 -44 -61 -45
-70 0 -3 -7 -25 -14 -50 -19 -59 -51 -106 -61 -90 -4 7 -12 10 -18 6 -5 -3
-13 1 -16 10 -5 12 -2 15 10 10 15 -6 15 -4 3 11 -12 14 -12 16 0 8 11 -6 13
-4 8 9 -4 9 -3 15 2 12 5 -3 11 1 15 9 3 8 0 15 -7 16 -9 0 -9 2 1 6 6 2 10 9
7 14 -4 5 2 6 12 2 16 -6 16 -5 4 10 -12 15 -11 17 3 17 13 0 16 5 11 20 -3
11 3 40 15 66 19 45 19 48 3 64 -10 9 -27 19 -38 24 -28 10 -172 20 -162 11 4
-5 17 -9 30 -10 16 -1 22 -8 22 -27 0 -20 3 -24 22 -20 30 6 31 -23 2 -38 -22
-12 -20 -37 2 -32 8 2 10 0 6 -4 -14 -14 -37 -13 -37 2 0 10 -5 12 -12 8 -9
-5 -8 -2 1 9 12 15 12 17 -2 11 -12 -4 -15 0 -13 19 2 15 -4 29 -16 36 -16 10
-18 8 -18 -12 0 -23 -31 -62 -41 -52 -3 2 -5 -8 -4 -23 0 -26 -2 -27 -55 -27
-30 0 -63 4 -72 8 -15 6 -18 3 -18 -17 0 -44 10 -56 48 -56 19 0 44 -8 55 -17
18 -16 20 -16 15 -2 -8 21 52 40 100 32 26 -4 37 -14 54 -47 11 -22 29 -50 39
-62 16 -17 17 -24 7 -52 -7 -19 -19 -32 -28 -31 -19 3 -53 -11 -62 -25 -3 -5
-34 -12 -67 -14 l-61 -4 -11 -44 c-10 -37 -17 -46 -55 -63 -59 -28 -117 -28
-144 1 -11 12 -20 25 -20 30 0 11 -38 10 -61 -2 -14 -8 -19 -7 -19 1 0 6 -9
20 -21 30 -17 14 -20 27 -18 62 4 39 2 43 -17 39 -22 -4 -114 70 -114 92 0 6
-18 11 -42 11 -39 0 -45 3 -60 33 -18 38 -35 56 -25 30 4 -11 1 -18 -6 -19 -9
0 -9 -2 0 -6 10 -3 10 -7 0 -18 -7 -7 -16 -10 -21 -7 -5 3 -7 -5 -4 -16 4 -12
2 -25 -3 -28 -5 -3 -9 4 -9 15 0 11 -4 23 -10 26 -6 3 -10 -4 -10 -18 0 -13
-9 -32 -20 -42 -11 -10 -20 -23 -20 -28 0 -6 6 -3 13 7 13 17 14 17 30 -8 21
-31 21 -50 2 -70 -14 -13 -13 -16 5 -26 27 -15 26 -55 -4 -87 -24 -26 -50 -25
-39 3 4 11 9 12 19 3 10 -8 14 -8 14 -1 0 6 -7 15 -17 20 -12 7 -14 18 -10 41
5 24 2 33 -13 41 -25 14 -27 13 -35 -12 -8 -23 -8 -23 -12 3 -2 14 5 48 16 76
11 28 18 53 15 56 -3 3 4 19 14 37 13 21 22 27 25 18 3 -7 6 -3 6 10 1 20 20
28 54 23 4 0 7 6 7 14 0 8 1 18 3 21 1 4 -8 13 -21 22 -20 13 -22 13 -16 -2 3
-9 11 -16 17 -16 6 0 8 -2 5 -5 -3 -3 -17 0 -31 6 -23 10 -24 13 -11 27 8 8
12 22 9 30 -3 9 -13 37 -22 64 -12 39 -18 46 -31 39 -10 -6 -24 -5 -35 1 -15
8 -18 7 -11 -4 16 -25 13 -39 -7 -33 -11 4 -26 1 -34 -5 -8 -7 -15 -9 -15 -5
0 4 -7 2 -15 -5 -8 -6 -18 -10 -22 -7 -4 2 -21 -9 -38 -25 -16 -17 -24 -27
-17 -23 11 6 11 3 0 -16 -7 -13 -14 -26 -16 -29 -2 -2 -7 2 -12 10 -8 13 -10
13 -10 -2 0 -11 12 -18 40 -23 22 -4 40 -11 40 -16 0 -5 7 -9 15 -9 9 0 19
-17 26 -45 6 -25 15 -42 21 -39 5 3 20 -2 34 -11 22 -14 25 -22 19 -48 -3 -18
-9 -59 -13 -92 -8 -68 -71 -211 -72 -162 0 15 5 27 11 27 6 0 9 7 5 15 -3 8
-1 15 4 15 6 0 10 14 10 30 0 17 5 30 10 30 6 0 10 5 10 10 0 6 -6 10 -13 10
-17 0 -57 34 -57 47 0 6 -7 16 -15 23 -12 10 -18 10 -30 0 -27 -22 -41 6 -35
70 6 63 6 64 -68 116 -38 28 -47 30 -72 21 -16 -6 -26 -15 -23 -20 3 -5 -1
-13 -8 -18 -11 -7 -9 -9 7 -9 19 0 21 -4 15 -32 -9 -39 -35 -92 -66 -133 -12
-16 -25 -37 -28 -45 -4 -8 -5 -3 -4 12 2 15 -1 29 -8 32 -9 3 -12 -11 -12 -49
0 -30 4 -52 9 -49 4 3 10 -8 14 -23 3 -15 17 -44 30 -63 16 -24 21 -43 17 -59
l-6 -23 -13 23 c-9 17 -9 28 -2 36 7 9 7 13 -1 13 -6 0 -11 -5 -11 -11 0 -5
-4 -7 -10 -4 -17 10 -11 -4 14 -38 24 -33 39 -67 30 -67 -10 0 -48 23 -62 37
-7 7 -23 13 -35 14 -21 0 -21 1 -2 9 18 8 17 9 -7 9 -16 1 -28 6 -28 11 0 6
-8 10 -17 10 -12 0 -14 3 -7 8 9 5 8 11 -2 20 -8 7 -14 8 -14 2 0 -5 -7 -10
-15 -10 -8 0 -15 5 -15 11 0 5 5 7 12 3 8 -5 9 -2 5 9 -3 10 -2 17 3 17 5 0 4
13 -2 31 -6 16 -13 28 -15 25 -8 -7 -39 34 -48 62 -4 13 -16 33 -27 44 -16 16
-22 18 -29 7 -4 -7 -11 -11 -14 -7 -7 6 19 71 37 95 12 16 38 5 38 -16 0 -14
-2 -14 -10 -1 -8 13 -10 12 -10 -2 0 -20 1 -21 24 -12 9 3 13 10 10 15 -3 5 2
6 11 3 9 -4 13 -9 11 -12 -7 -6 13 -32 25 -32 16 0 9 27 -10 41 -16 12 -18 21
-12 66 4 28 4 60 -1 72 -4 12 -3 21 2 21 6 0 10 -5 10 -11 0 -5 5 -7 11 -3 8
5 6 10 -5 16 -9 5 -20 7 -24 4 -4 -3 -13 4 -20 14 -10 16 -9 18 5 13 11 -4 14
-3 9 5 -9 16 -54 15 -206 -3 -110 -13 -126 -13 -140 0 -23 24 15 55 71 58 47
2 75 17 56 29 -6 4 -15 2 -19 -5 -10 -15 -10 18 -2 62 6 27 10 31 41 31 26 0
33 4 31 17 -2 11 7 21 23 27 21 7 33 5 58 -13 17 -12 31 -18 31 -13 0 5 22 14
50 19 54 11 70 3 73 -36 2 -24 17 -29 17 -5 0 8 7 22 15 31 8 8 13 19 10 24
-4 5 -1 9 4 9 6 0 11 5 11 11 0 6 -6 9 -14 6 -17 -7 -36 12 -36 36 0 23 -29
87 -40 87 -4 0 -10 -10 -14 -23 -3 -13 -15 -34 -27 -48 -22 -24 -22 -24 -16
-1 3 12 1 20 -4 16 -18 -11 -8 19 21 63 17 24 30 53 30 64 0 25 22 24 45 -1
10 -11 23 -20 29 -20 7 0 18 -9 25 -19 8 -11 21 -17 28 -14 12 5 12 7 1 14
-10 7 -9 9 4 9 11 0 22 -17 33 -52 10 -29 21 -57 26 -62 5 -6 9 -18 9 -28 0
-12 7 -18 23 -17 15 1 17 3 6 6 -18 4 -34 43 -18 43 5 0 9 5 9 11 0 6 -7 9
-15 5 -12 -4 -13 -2 -3 14 8 12 15 15 19 9 3 -6 17 -16 30 -23 53 -26 22 -137
-41 -151 -17 -4 -30 -13 -30 -20 0 -8 -9 -30 -20 -50 -29 -52 -26 -75 5 -39
25 29 29 42 26 76 -2 12 3 16 12 12 8 -3 18 -1 22 5 3 6 11 11 17 11 6 0 8 -3
5 -7 -9 -8 24 -32 46 -33 9 0 17 6 17 14 0 9 -7 12 -18 10 -10 -3 -22 3 -30
16 -8 13 -8 20 -1 20 5 0 7 5 4 10 -4 6 6 10 22 11 25 0 26 1 8 10 -17 8 -16
9 8 5 15 -2 30 0 33 5 2 5 15 5 27 0 12 -4 28 -6 35 -4 7 3 20 -5 30 -17 11
-14 23 -19 35 -15 9 4 15 11 12 15 -3 5 -1 11 5 15 5 3 10 2 10 -4 0 -5 15 -8
33 -5 34 5 117 -14 117 -26 0 -4 -11 -10 -24 -12 -18 -4 -26 0 -31 16 -6 21
-6 21 -15 -2 -5 -12 -20 -26 -32 -31 -21 -8 -20 -8 9 -13 20 -3 30 -1 26 6 -4
5 1 7 11 3 9 -4 34 0 54 9 52 22 116 29 106 12 -4 -7 -4 -10 1 -6 4 4 16 3 27
-3 11 -6 21 -9 23 -7 2 2 -9 30 -25 62 -32 62 -34 70 -22 63 4 -3 7 6 7 19 0
13 -3 24 -7 24 -5 0 -8 7 -8 15 0 8 -4 15 -8 15 -11 0 -54 81 -47 88 3 3 5 -1
5 -9 0 -11 2 -11 10 1 5 8 10 11 10 5 0 -5 25 -10 55 -10 36 -1 51 3 45 9 -6
6 -10 14 -10 19 0 11 89 -104 108 -139 7 -13 18 -24 25 -23 9 0 8 2 -1 6 -8 3
-4 11 14 25 18 15 22 23 13 28 -8 5 -10 22 -6 49 5 38 3 41 -18 41 -27 0 -40
34 -19 51 9 7 12 20 8 32 -4 13 -2 17 5 13 6 -4 11 -14 11 -22 0 -8 4 -14 8
-14 5 0 21 -18 38 -40 16 -23 37 -50 47 -62 9 -12 17 -35 17 -52 0 -32 40 -86
63 -86 7 0 6 4 -3 10 -12 8 -9 10 13 10 16 0 26 -4 23 -9 -3 -4 1 -16 8 -26
10 -14 15 -15 21 -5 5 9 4 11 -3 6 -18 -11 -15 55 3 80 21 31 168 42 220 17
35 -17 37 -17 46 0 6 9 20 17 32 17 22 1 60 23 52 31 -2 3 41 6 96 7 81 3 102
0 116 -13 16 -16 43 -16 87 1 16 6 18 4 13 -17 -21 -91 -21 -89 11 -89 33 0
83 35 76 53 -7 19 99 16 108 -3 5 -11 7 -8 7 8 1 23 -1 24 -71 22 -105 -3
-108 -3 -108 21 0 19 4 20 59 14 39 -4 77 -1 115 9 49 12 57 12 52 0 -6 -16
-4 -17 18 -8 22 8 20 40 -3 56 -11 8 -25 26 -32 41 -7 15 -16 27 -21 27 -4 0
-8 7 -8 15 0 7 -8 19 -17 24 -10 6 -13 11 -8 11 6 0 4 4 -4 9 -9 6 -12 18 -7
36 l7 27 29 -40 c16 -22 34 -43 40 -47 22 -14 -1 57 -26 82 -13 13 -24 33 -24
44 0 17 -3 18 -21 8 -14 -7 -18 -14 -11 -21 11 -11 4 -48 -8 -48 -4 0 -10 6
-13 14 -4 10 -30 15 -97 17 -74 3 -93 7 -101 22 -6 9 -21 17 -34 17 -14 0 -25
4 -25 8 0 5 -8 17 -17 28 -10 11 -23 28 -29 39 -5 10 -20 20 -33 22 -16 2 -20
-1 -15 -9 5 -7 9 -20 9 -30 2 -26 74 -108 96 -108 14 0 19 -7 19 -27 0 -16 -4
-34 -9 -41 -12 -20 -57 -4 -83 29 -13 16 -28 29 -35 29 -7 0 -17 8 -22 18 -6
9 -11 13 -11 9 0 -12 -30 20 -30 32 0 6 9 11 19 11 25 0 36 17 23 33 -6 7 -18
32 -28 57 -10 25 -31 57 -47 72 -24 23 -27 32 -20 54 9 26 10 26 62 -45 52
-70 89 -94 78 -50 -7 28 9 69 27 69 7 0 20 -7 27 -16 13 -16 31 -16 141 0 18
3 36 -3 50 -15 l23 -19 -35 6 c-26 4 -31 3 -20 -5 8 -6 25 -11 36 -11 33 0 35
42 8 117 -13 36 -24 68 -24 70 0 2 -5 1 -10 -2 -6 -4 -10 -3 -8 2 2 10 -43
104 -59 121 -11 11 -13 11 -13 -2 0 -9 5 -16 11 -16 5 0 9 -8 8 -17 -1 -10 0
-29 1 -43 1 -23 2 -24 11 -5 8 17 8 16 3 -5 -3 -14 -6 -32 -6 -42 1 -9 -8 -24
-19 -34 -12 -11 -19 -13 -19 -5 0 7 -4 9 -10 6 -6 -4 -10 11 -10 38 0 42 -1
44 -30 44 -16 0 -30 -3 -30 -7 0 -4 -17 -6 -37 -5 -29 1 -48 11 -80 41 -37 33
-43 45 -43 79 0 23 8 53 19 69 l20 30 -2 -65 c-2 -96 5 -109 59 -109 44 0 59
15 27 27 -22 8 -53 42 -53 57 0 22 17 37 33 30 13 -5 17 0 17 21 0 15 -4 24
-10 20 -10 -6 -14 7 -11 34 2 7 -2 10 -7 7 -6 -3 -12 -1 -14 6 -3 9 -12 9 -37
-2 -35 -14 -50 -5 -51 30 0 9 -7 26 -16 38 l-15 22 -18 -21 c-16 -20 -20 -21
-57 -8 -21 7 -52 22 -68 33 -43 29 -91 24 -130 -13 -18 -17 -38 -31 -45 -31
-17 0 -40 30 -41 52 0 9 -13 32 -30 50 -53 58 -35 127 33 128 21 0 30 -6 34
-20 5 -18 14 -20 92 -20 l86 -1 -29 -23 c-19 -16 -26 -28 -20 -37 5 -8 7 -24
5 -37 -3 -23 -3 -23 26 -5 25 16 27 16 14 0 -12 -16 -9 -17 38 -17 37 0 51 4
51 14 0 9 7 12 18 9 16 -4 18 1 15 36 -3 38 -1 41 23 41 14 0 32 6 39 13 18
15 44 37 48 40 2 1 12 -5 21 -13 24 -19 46 -21 46 -5 0 21 53 27 119 14 74
-14 97 -8 79 21 -14 22 -34 26 -40 8 -4 -11 -58 -21 -58 -11 0 2 16 21 36 43
24 26 42 37 52 33 12 -4 10 1 -6 17 -13 12 -21 24 -18 27 7 8 55 -30 56 -44 0
-7 11 -13 24 -13 13 0 29 -6 35 -14 18 -21 -90 -106 -136 -106 -24 0 -32 4
-27 13 4 6 4 9 0 5 -4 -3 -8 -8 -7 -10 0 -2 -4 -19 -8 -38 -4 -20 -4 -44 0
-55 6 -16 8 -13 9 15 2 19 2 42 1 50 -1 11 3 9 13 -5 9 -11 20 -25 25 -31 5
-7 7 -14 4 -17 -3 -3 2 -16 11 -29 l16 -22 0 26 c0 25 21 53 33 42 6 -6 -11
-64 -24 -78 -5 -5 1 -14 14 -21 15 -7 24 -8 29 -1 15 23 74 -57 69 -94 -1 -8
5 -5 12 8 7 12 16 19 20 16 4 -4 7 2 7 14 0 11 5 24 10 27 6 3 11 23 12 43 l1
37 4 -34 c3 -19 -1 -46 -7 -60 -29 -63 -39 -88 -44 -113 -6 -25 -4 -26 21 -19
16 5 37 6 48 4 11 -2 26 -5 33 -5 17 -2 15 -18 -3 -18 -8 0 -15 -9 -15 -21 0
-13 -4 -18 -12 -13 -8 5 -9 0 -6 -14 8 -30 -12 -28 -64 5 -40 24 -57 41 -107
103 -19 23 -20 23 -21 5 0 -11 11 -32 25 -47 14 -15 26 -31 27 -35 1 -8 10
-21 73 -103 20 -25 49 -66 67 -92 27 -42 52 -63 46 -40 -4 16 23 90 37 102 12
10 15 9 16 -6 0 -11 9 14 18 54 10 40 23 78 29 84 13 13 42 4 42 -13 0 -6 -7
-9 -15 -5 -8 3 -15 1 -15 -3 0 -5 6 -11 14 -14 10 -4 12 -22 9 -76 -3 -50 -1
-71 7 -71 7 0 9 -7 6 -17 -4 -9 5 -5 21 11 15 15 28 34 29 43 4 27 13 26 20
-2 9 -35 -47 -152 -79 -164 -21 -9 -21 -9 -2 -16 11 -4 30 -10 41 -15 12 -5
52 -54 89 -110 37 -56 70 -99 72 -96 3 3 14 1 23 -4 15 -8 17 -6 13 10 -6 22
82 164 96 156 4 -3 16 11 26 32 10 20 21 44 26 53 5 12 -2 26 -27 50 -19 18
-34 39 -34 46 0 7 -3 13 -7 13 -10 0 -33 49 -33 71 0 28 -11 49 -23 42 -6 -3
-7 -1 -3 5 4 7 3 12 -2 12 -5 0 -12 8 -15 18 -4 9 -13 32 -21 50 -9 18 -11 30
-6 27 5 -3 13 13 16 35 4 23 14 50 23 62 20 24 102 42 113 25 12 -19 9 -25
-11 -20 -10 3 -22 -1 -27 -8 -5 -8 -3 -11 7 -7 9 4 14 -2 15 -18 1 -13 -3 -24
-8 -24 -6 0 -5 -6 2 -15 7 -8 9 -15 4 -15 -5 0 -19 18 -32 40 -21 38 -42 52
-42 29 0 -5 -5 -7 -12 -3 -8 5 -9 2 -5 -10 4 -9 3 -15 -2 -12 -14 9 -11 -66 5
-113 8 -25 29 -72 46 -104 45 -84 118 -156 118 -116 0 6 6 9 14 6 8 -3 18 2
22 11 6 13 9 9 14 -18 l6 -35 13 30 c7 17 22 48 33 70 12 22 43 81 70 132 38
73 46 97 39 115 -5 13 -7 36 -6 52 2 19 0 25 -6 19 -11 -11 -13 -38 -6 -70 4
-16 0 -23 -19 -27 -14 -4 -29 -4 -34 -1 -5 3 -11 1 -14 -4 -8 -13 -67 -7 -102
11 -19 8 -29 21 -30 36 -1 12 -4 26 -8 29 -3 4 7 12 24 20 45 18 70 0 70 -49
0 -31 4 -38 19 -38 11 0 23 5 26 10 3 6 20 10 37 10 17 0 28 3 24 8 -4 4 -20
7 -34 7 -19 0 -30 8 -40 28 -17 35 -11 58 27 120 29 45 33 47 76 47 40 0 45 3
45 22 0 12 6 29 14 37 8 9 18 29 22 45 l7 30 -23 -22 c-13 -12 -27 -22 -31
-22 -11 0 -39 42 -34 50 2 3 -5 13 -16 20 -10 8 -19 19 -19 25 0 13 -78 65
-97 65 -14 0 -18 57 -5 76 4 6 21 18 39 26 31 15 32 15 38 -10 4 -16 9 -21 13
-15 5 8 15 4 30 -12 l23 -24 -28 -4 c-27 -4 -27 -4 4 -6 17 0 35 -6 39 -13 4
-6 3 -8 -4 -5 -6 5 -8 0 -5 -13 3 -11 9 -17 14 -14 5 3 9 -2 9 -11 0 -11 -5
-15 -15 -11 -21 8 -19 -5 8 -36 17 -20 29 -25 50 -21 32 6 32 9 10 59 -9 22
-17 41 -18 44 -2 8 -43 74 -54 87 -6 7 -11 18 -11 25 0 9 3 9 11 -2 9 -13 10
-13 6 2 -8 22 15 29 31 9 10 -13 10 -11 1 12 -12 26 -13 26 -31 10 -15 -14
-24 -14 -57 -5 -21 7 -61 12 -88 12 -51 0 -73 12 -73 41 0 29 23 40 71 31 39
-8 45 -6 45 9 0 10 -3 16 -7 13 -4 -2 -12 10 -19 27 l-13 30 -11 -23 c-9 -18
-21 -24 -54 -26 -52 -4 -69 8 -70 49 0 22 2 28 11 20 9 -7 19 -2 35 14 24 25
41 28 55 10 4 -5 5 13 3 42 -5 50 -5 51 26 62 17 6 51 11 76 11 35 0 43 3 38
15 -3 9 0 15 10 15 8 0 12 -5 9 -10z m-1232 -47 c-5 -12 -3 -14 7 -8 10 6 12
2 7 -16 -4 -13 -7 -30 -7 -37 0 -7 -4 -11 -9 -8 -5 3 -14 0 -20 -8 -9 -11 -9
-14 1 -13 7 0 38 -1 70 -1 l56 -2 12 -50 c8 -33 16 -48 23 -43 8 4 7 1 -1 -9
-7 -8 -9 -23 -6 -32 5 -12 0 -19 -13 -22 -11 -3 -37 -32 -58 -65 -21 -32 -40
-57 -42 -55 -5 5 80 180 90 184 4 2 7 8 7 12 0 5 -16 3 -35 -3 -48 -17 -145
-105 -137 -125 3 -10 1 -13 -6 -8 -7 4 -12 3 -12 -3 0 -5 6 -12 13 -15 6 -4 2
-4 -10 -2 -15 3 -20 0 -16 -10 3 -8 0 -14 -6 -14 -14 0 -15 42 -1 56 11 11 21
106 10 99 -3 -2 -12 12 -19 32 -10 27 -10 37 -1 46 10 9 11 7 6 -10 -4 -12 -2
-24 4 -28 5 -3 10 1 10 9 0 9 8 25 18 36 9 11 18 25 18 30 1 6 2 15 3 21 0 5
6 7 13 3 7 -4 8 -3 4 4 -4 6 0 25 9 42 17 32 29 41 18 13z m1539 -50 c10 -9
18 -22 18 -29 0 -20 -45 -64 -66 -64 -27 0 -48 -35 -29 -50 9 -7 13 -30 13
-63 -1 -29 -4 -41 -6 -28 -3 19 -6 21 -14 10 -7 -10 -8 -9 -4 6 5 15 -5 31
-33 59 -22 21 -44 35 -50 32 -16 -10 -43 21 -42 47 0 12 3 38 6 57 l7 35 91 2
c72 2 95 -1 109 -14z m268 -181 c0 -11 11 -24 25 -30 28 -13 32 -34 11 -51 -8
-6 -16 -21 -19 -33 -6 -20 -4 -21 93 -14 105 7 116 3 106 -37 -4 -16 -26 -32
-76 -55 -38 -17 -79 -32 -89 -32 -17 0 -18 4 -11 30 7 23 5 30 -5 30 -9 0 -12
-6 -8 -17 4 -14 2 -14 -10 2 -8 11 -16 29 -18 40 -3 16 -15 21 -54 26 -63 7
-75 3 -75 -27 0 -17 -6 -24 -20 -24 -14 0 -18 -5 -13 -17 4 -11 8 -12 11 -5 2
7 8 12 13 12 6 0 8 -4 5 -9 -4 -5 0 -12 6 -14 7 -3 -4 -6 -24 -6 -21 -1 -38 4
-38 10 0 16 21 52 39 68 9 7 4 6 -11 -3 -23 -13 -28 -14 -28 -2 0 31 71 59
143 57 20 -1 37 3 37 7 0 5 -12 7 -26 4 -18 -3 -25 -1 -20 6 4 7 -2 13 -16 16
-69 15 -65 13 -40 21 18 6 20 10 10 17 -10 7 -9 11 7 21 19 12 57 23 83 26 6
0 12 -7 12 -17z m-2207 -620 c16 -23 36 -42 46 -42 25 0 41 -20 41 -51 0 -15
5 -31 11 -35 6 -3 9 -15 6 -25 -3 -11 -1 -17 3 -14 5 3 12 -1 17 -9 4 -7 24
-23 43 -36 24 -15 28 -19 12 -15 -16 5 -30 1 -43 -11 -24 -21 -32 -14 -31 28
1 23 -2 28 -8 18 -8 -13 -10 -12 -10 2 0 10 -24 43 -52 74 -29 31 -52 61 -50
65 1 5 -2 9 -8 9 -5 0 -10 11 -10 25 0 14 -4 25 -10 25 -5 0 -10 9 -10 21 0
30 21 19 53 -29z m-339 -211 c-4 -38 -1 -56 16 -84 21 -35 22 -35 96 -39 52
-2 79 1 86 10 6 6 21 12 33 12 19 0 24 -7 30 -41 4 -22 4 -43 1 -47 -14 -13
-45 -8 -49 10 -6 20 -49 24 -91 8 -21 -8 -35 -5 -69 15 -23 13 -41 29 -39 34
1 6 -4 11 -11 11 -8 0 -14 6 -14 13 -1 6 -7 26 -13 42 -10 25 -10 37 3 68 9
20 18 37 21 37 3 0 3 -22 0 -49z m147 -258 c1 -10 1 -21 0 -25 0 -5 3 -8 8 -8
5 0 11 -8 14 -19 4 -17 3 -17 -27 -3 -17 9 -34 20 -38 26 -5 6 -5 -4 -2 -21 5
-25 3 -34 -10 -39 -10 -4 -16 -17 -15 -33 1 -17 3 -20 6 -8 3 10 10 16 16 14
13 -4 29 -57 22 -74 -2 -7 2 -10 11 -6 7 3 14 14 14 24 0 23 38 26 46 4 4 -8
10 -15 16 -15 16 0 37 -26 44 -54 9 -37 -18 -55 -81 -56 -61 0 -99 18 -103 48
-2 12 -11 27 -20 34 -38 29 -57 118 -25 118 9 0 14 3 10 6 -11 12 24 65 56 84
40 25 57 25 58 3z m2613 -113 c-11 -19 -23 -38 -29 -42 -5 -4 -7 -8 -3 -8 17
0 -10 -44 -28 -45 -97 -8 -114 -15 -144 -63 -16 -25 -27 -49 -24 -53 2 -4 21
-3 41 2 21 5 71 11 111 13 69 4 74 3 69 -15 -4 -15 0 -19 23 -19 15 0 30 -6
33 -14 4 -10 18 -12 50 -9 45 5 92 -10 82 -27 -6 -10 -150 -7 -175 3 -16 6
-130 22 -212 30 -10 1 -18 4 -18 8 0 4 -9 5 -20 2 -11 -3 -31 -2 -45 1 -21 5
-25 12 -25 41 0 34 1 35 40 35 37 0 40 2 40 29 0 33 24 46 105 57 51 7 101 22
77 23 -9 1 -5 12 12 32 14 17 26 37 26 44 0 8 6 27 13 42 l12 28 3 -30 c2 -17
-4 -46 -14 -65z m-3084 -50 c15 -11 58 -99 52 -105 -4 -4 4 -4 16 0 21 6 23 4
17 -14 -5 -17 -2 -21 14 -21 22 0 30 -33 11 -45 -5 -3 -10 1 -10 9 0 8 -3 17
-7 19 -5 3 -6 -34 -2 -81 5 -81 19 -128 42 -143 10 -7 1 -29 -12 -29 -4 0 -17
9 -28 19 -12 11 -23 17 -26 15 -3 -3 -8 4 -12 15 -3 12 -10 21 -16 21 -5 0 -9
10 -9 23 1 70 -26 115 -53 88 -9 -9 -8 -14 3 -21 20 -13 6 -12 -65 4 -57 13
-174 14 -194 1 -6 -3 -19 3 -31 15 -11 11 -28 20 -37 21 -36 1 -58 8 -61 19
-2 6 -9 16 -16 23 -7 7 -15 28 -18 47 l-6 35 57 -1 c31 0 68 6 82 13 22 11 42
11 101 2 40 -6 80 -17 89 -25 9 -8 37 -14 63 -14 26 0 45 -3 42 -8 -2 -4 2
-18 10 -32 7 -14 14 -20 14 -15 0 6 5 3 11 -5 8 -12 9 -11 6 5 -2 11 -9 19
-16 17 -7 -1 -10 2 -7 7 11 17 -6 41 -27 41 -20 0 -20 0 -1 14 10 8 16 18 12
21 -4 4 -3 16 3 26 5 11 6 19 1 19 -5 0 -9 6 -9 13 0 6 -4 21 -8 32 l-7 20 13
-20 c7 -11 15 -22 19 -25z m876 -113 l-6 -34 -93 5 c-76 4 -96 2 -109 -11 -16
-16 -44 -13 -82 9 -18 11 -18 13 -4 28 9 9 32 17 51 18 19 2 33 6 30 11 -2 4
5 7 16 7 12 0 21 -5 21 -11 0 -5 5 -7 10 -4 6 3 10 1 10 -5 0 -6 5 -8 10 -5 6
3 10 -1 10 -9 0 -9 4 -16 10 -16 5 0 7 7 4 15 -4 10 0 15 14 15 11 0 32 13 48
28 28 27 30 27 48 11 14 -13 17 -25 12 -52z m3301 -67 c4 -15 14 -20 39 -20
19 0 34 -4 34 -10 0 -5 15 -10 33 -10 22 0 28 3 18 9 -11 7 -9 10 8 16 16 5
36 -3 77 -31 29 -20 54 -43 54 -50 0 -7 3 -19 6 -28 5 -13 -1 -16 -30 -16 -34
0 -35 1 -30 30 5 22 2 31 -11 36 -13 5 -14 9 -3 15 8 6 9 9 2 9 -11 0 -84 -67
-84 -77 0 -2 -10 -27 -21 -54 -19 -44 -25 -49 -54 -49 -38 0 -65 32 -65 77 0
48 -5 50 -139 38 -111 -9 -125 -12 -139 -32 -20 -31 -32 -29 -32 7 0 26 4 30
35 35 19 3 52 8 73 12 20 4 70 5 110 4 57 -2 72 0 70 10 -2 8 -8 18 -15 24 -6
6 -9 24 -6 43 5 28 9 32 35 32 21 0 31 -6 35 -20z m-802 -16 c19 -14 19 -16 3
-28 -28 -20 -22 -25 34 -28 41 -2 54 -7 56 -20 3 -15 -4 -18 -40 -19 -30 0
-37 -3 -24 -8 19 -7 19 -8 0 -15 -18 -8 -18 -8 3 -16 15 -6 20 -15 16 -29 -3
-11 -8 -20 -12 -19 -3 1 -17 -4 -31 -9 -22 -10 -23 -12 -7 -18 9 -4 17 -13 17
-20 0 -8 7 -21 16 -29 13 -14 13 -16 1 -16 -9 0 -17 6 -20 13 -4 9 -7 9 -18
-1 -12 -11 -12 -13 1 -10 9 2 14 -3 12 -12 -2 -8 -1 -12 3 -8 9 9 75 -51 75
-69 0 -9 13 -13 40 -13 39 0 40 -1 40 -36 0 -21 -4 -33 -10 -29 -5 3 -10 2
-10 -3 0 -4 17 -18 38 -29 61 -35 104 -86 100 -119 -3 -26 -6 -29 -33 -26 -16
2 -32 8 -36 13 -3 5 -15 11 -27 14 -12 2 -26 7 -32 10 -14 9 -8 54 8 60 21 8
2 27 -20 19 -13 -4 -18 -2 -14 4 3 5 -3 12 -14 15 -27 7 -25 35 3 47 12 5 16
9 10 9 -7 1 -13 7 -13 14 0 7 -18 21 -40 31 -22 10 -40 22 -40 27 0 5 -13 9
-28 9 -57 0 -99 91 -45 95 13 1 26 5 30 9 5 5 -1 6 -13 4 -11 -1 -20 2 -20 7
1 6 6 9 11 7 7 -2 7 0 0 6 -16 15 -173 22 -178 9 -8 -22 -126 -50 -186 -44
-31 2 -64 8 -73 12 -29 12 -22 -20 13 -60 27 -31 37 -35 78 -35 25 0 63 5 83
11 36 9 39 8 70 -27 18 -20 42 -51 53 -68 11 -17 25 -35 32 -41 15 -13 26 -82
13 -90 -6 -4 -7 1 -3 11 5 13 3 16 -10 11 -18 -7 -42 17 -32 33 4 6 -10 33
-30 61 -20 28 -33 55 -28 62 4 7 0 7 -10 -2 -11 -9 -17 -10 -17 -2 0 7 -32 11
-95 11 l-96 0 -20 35 c-21 35 -25 37 -64 39 -23 1 -49 48 -41 74 4 13 18 17
58 19 91 3 168 14 168 24 0 5 -6 9 -12 9 -7 1 0 8 15 16 16 8 25 20 21 26 -5
7 -2 8 6 3 9 -5 10 -2 6 12 -5 17 -2 19 22 15 17 -2 33 2 40 11 11 13 6 14
-34 9 -37 -4 -46 -2 -42 9 3 9 19 14 44 14 40 0 95 -20 74 -27 -9 -3 -9 -10 1
-30 13 -29 12 -29 112 -8 20 4 37 5 37 1 0 -14 -16 -29 -35 -34 -12 -3 -5 -5
17 -6 31 -1 36 2 31 16 -5 13 -2 15 11 10 11 -4 15 -3 10 4 -4 6 0 15 7 21 12
7 11 8 -1 7 -8 -1 -23 1 -33 6 -14 6 -15 10 -6 21 6 8 16 11 22 7 7 -4 8 0 3
13 -5 10 -11 27 -13 36 -3 10 -9 15 -14 12 -5 -3 -9 0 -9 5 0 16 42 13 65 -5z
m244 -138 c8 -2 16 -7 18 -12 2 -5 27 -8 56 -6 41 3 57 -1 75 -16 12 -11 22
-24 22 -31 0 -6 4 -11 10 -11 6 0 9 -3 8 -7 -3 -14 25 -62 39 -67 9 -4 11 -2
7 7 -5 8 -2 7 9 -2 9 -7 17 -10 17 -7 0 4 7 0 16 -8 8 -9 12 -20 9 -26 -8 -13
-5 -13 34 1 17 6 31 17 31 25 0 8 4 14 9 14 15 0 3 -79 -14 -96 -8 -9 -15 -27
-15 -40 0 -22 -4 -25 -27 -22 -20 2 -29 9 -31 26 -2 15 -10 22 -20 21 -27 -3
-51 11 -45 27 3 8 0 14 -7 14 -6 0 -9 4 -6 9 6 9 -47 115 -72 144 -20 23 -80
22 -112 -3 -14 -11 -30 -20 -37 -20 -15 0 -44 40 -37 52 3 4 -2 8 -10 8 -10 0
-16 9 -16 21 0 19 4 21 38 14 20 -4 44 -8 51 -9z m-2364 -797 c-5 -16 -1 -19
27 -19 18 0 40 4 48 10 11 7 19 -2 37 -38 27 -57 29 -78 6 -91 -10 -6 -14 -11
-9 -11 5 0 3 -6 -4 -14 -6 -8 -13 -44 -15 -79 -1 -35 -8 -74 -14 -85 -6 -11
-11 -29 -10 -39 0 -19 39 90 42 118 0 9 7 16 13 16 10 0 10 -5 3 -20 -7 -12
-7 -23 -1 -29 6 -6 14 1 23 20 8 20 18 28 28 24 9 -3 12 -1 8 5 -4 6 -1 14 5
16 8 3 6 6 -5 6 -15 1 -16 3 -5 15 8 9 15 10 19 4 4 -6 17 0 30 16 13 15 29
24 36 22 7 -3 10 1 6 9 -8 21 24 30 53 15 25 -14 33 -32 12 -29 -25 4 -46 -12
-41 -32 3 -11 -1 -21 -11 -25 -9 -3 -13 -10 -10 -15 3 -5 8 -7 12 -5 4 2 8
-14 9 -37 2 -24 11 -49 23 -62 21 -23 27 -55 10 -55 -6 0 -13 7 -16 15 -6 16
-26 21 -22 6 4 -11 -47 -59 -65 -62 -20 -3 -47 12 -47 27 0 8 -6 11 -16 7 -13
-5 -13 -7 -2 -14 10 -7 9 -9 -4 -9 -9 0 -19 6 -21 13 -3 7 -6 5 -6 -5 -1 -20
-21 -25 -21 -6 0 6 -3 8 -6 5 -4 -4 -1 -13 6 -22 14 -17 7 -55 -17 -91 -13
-21 -18 -22 -32 -12 -14 12 -14 11 -2 -4 7 -10 17 -15 22 -12 5 3 9 1 9 -4 0
-4 15 -16 33 -26 28 -15 20 -15 -16 -1 -8 4 -18 -5 -25 -21 -13 -27 -2 -79 23
-113 7 -11 7 -13 -2 -7 -7 4 -13 2 -13 -3 0 -6 4 -11 10 -11 5 0 14 -9 20 -20
15 -27 6 -25 -25 6 -15 14 -24 33 -21 41 3 8 2 12 -3 9 -5 -3 -16 15 -26 39
-18 47 -41 52 -31 6 5 -17 4 -21 -3 -12 -5 7 -13 11 -18 8 -5 -3 -15 -2 -23 4
-11 6 -12 9 -2 9 7 0 10 5 7 10 -3 6 -1 10 4 10 6 0 11 -6 11 -12 0 -9 3 -8
10 2 7 11 5 17 -8 22 -9 4 -11 7 -4 7 6 1 12 6 12 12 0 5 -5 7 -11 4 -5 -4
-25 -2 -42 5 -70 26 -77 32 -77 66 0 18 -4 36 -10 39 -12 7 -14 65 -2 65 4 0
18 -13 32 -29 13 -17 28 -28 32 -25 5 3 6 10 3 15 -4 5 -1 9 5 9 8 0 10 -9 6
-25 -5 -19 -2 -25 10 -25 10 0 14 6 11 14 -3 7 0 19 6 25 8 8 8 11 -1 11 -7 0
-12 5 -12 11 0 5 5 7 11 3 8 -4 9 1 4 17 -4 13 -11 25 -15 27 -10 4 17 59 32
68 6 4 -8 15 -32 24 l-43 17 21 21 c30 30 28 36 -10 28 -31 -6 -31 -6 -13 10
17 13 17 15 3 10 -26 -8 -22 9 5 22 34 17 107 26 107 13 0 -6 5 -11 11 -11 5
0 7 4 4 10 -10 16 6 81 19 77 6 -3 10 -10 8 -16 -1 -7 2 -10 8 -6 6 3 7 11 4
17 -4 6 1 8 14 4 11 -4 23 -2 27 4 4 6 3 10 -2 9 -18 -4 -133 14 -133 21 0 4
-9 10 -20 13 -19 5 -26 30 -15 59 3 7 19 13 35 14 25 1 29 -2 25 -17z m1720
-221 c2 -7 6 -35 8 -63 5 -47 4 -49 -10 -28 l-15 23 -20 -25 c-11 -14 -33 -32
-48 -40 -33 -17 -74 -20 -65 -5 3 6 1 10 -4 10 -17 0 -13 19 10 51 13 18 19
40 17 54 -5 23 -2 24 51 28 31 2 60 4 64 5 4 1 9 -4 12 -10z m203 -78 c5 -13
3 -13 -11 -1 -15 12 -17 11 -17 -4 0 -17 11 -17 51 0 11 4 25 -2 39 -17 17
-19 18 -24 6 -26 -8 -2 -24 2 -35 8 -15 8 -27 8 -42 -1 -15 -8 -19 -8 -15 0 4
6 2 11 -3 11 -6 0 -11 -7 -11 -15 0 -9 -6 -18 -14 -21 -8 -3 -12 -13 -9 -22 3
-11 -18 -41 -59 -83 -52 -55 -70 -67 -103 -72 -102 -14 -141 14 -48 34 32 6
64 12 71 12 7 0 11 6 8 14 -3 8 2 13 14 13 13 0 18 5 14 15 -4 8 -13 15 -21
15 -8 0 -12 -4 -9 -8 3 -5 -11 -4 -30 2 -31 10 -33 12 -12 17 13 3 26 2 29 -3
7 -11 45 31 54 62 4 14 19 40 33 58 23 30 29 33 70 30 30 -2 47 -8 50 -18z
m-1568 -26 c0 -8 10 -19 23 -24 20 -8 20 -9 2 -10 -17 0 -17 -2 -5 -10 8 -5
11 -10 6 -10 -5 0 3 -9 17 -20 14 -11 31 -20 39 -20 10 0 9 3 -2 11 -11 8 -7
9 18 5 23 -4 32 -2 31 7 -4 29 2 37 27 37 17 0 28 -6 31 -20 4 -16 14 -20 47
-21 22 -1 44 -1 49 0 11 2 8 -9 -8 -25 -8 -9 -15 -12 -15 -8 0 5 -5 3 -12 -4
-7 -7 -41 -12 -83 -12 -39 0 -76 -5 -82 -11 -15 -15 -48 23 -80 93 -15 31 -31
54 -36 51 -6 -3 -7 -1 -3 5 9 15 36 4 36 -14z m-889 -234 c28 0 79 -34 79 -52
0 -5 -4 -7 -9 -3 -6 3 -15 -3 -20 -14 -15 -28 -14 -33 7 -22 12 6 21 4 32 -7
13 -14 12 -15 -3 -9 -9 3 -19 2 -22 -3 -9 -15 185 5 218 22 12 6 36 6 70 -2
75 -17 77 -18 71 -35 -9 -23 -55 -19 -61 5 -3 11 -6 20 -8 20 -11 0 -65 -23
-65 -28 0 -4 -46 -7 -103 -7 -63 0 -114 -5 -134 -13 -28 -12 -33 -12 -51 5
-11 10 -30 26 -43 36 -20 15 -22 19 -9 27 13 9 7 14 -12 11 -4 0 -5 9 -3 22 6
31 29 71 33 58 2 -6 17 -11 33 -11z m881 -172 c16 -15 27 -31 24 -36 -3 -5 1
-18 10 -28 14 -18 15 -17 9 14 -4 19 -3 32 4 32 6 0 7 7 4 17 -13 32 17 2 58
-60 l41 -62 -17 -50 c-10 -27 -28 -61 -40 -75 -13 -14 -34 -44 -49 -67 -14
-24 -31 -43 -37 -43 -5 0 -7 -5 -3 -12 5 -7 3 -8 -6 -3 -18 11 -140 12 -140 2
0 -5 -10 -5 -22 -1 -21 6 -21 6 -5 -10 9 -9 14 -23 11 -30 -3 -8 2 -16 13 -19
13 -3 11 -5 -7 -6 -37 -1 -100 18 -100 31 0 7 -10 22 -22 36 -13 13 -23 34
-23 47 -1 21 3 23 35 18 24 -3 31 -2 21 5 -10 7 -6 10 14 10 19 0 23 -3 14 -9
-11 -7 -10 -9 4 -9 12 0 17 8 17 30 0 17 -4 30 -9 30 -4 0 -7 14 -5 30 2 17
-1 30 -6 30 -6 0 -10 7 -10 16 0 9 -9 25 -21 35 -25 22 -36 86 -14 86 8 0 12
-4 9 -9 -5 -8 8 -12 37 -9 16 2 79 -67 79 -86 0 -6 9 -18 21 -29 12 -11 18
-26 15 -37 -2 -10 -2 -16 1 -13 4 3 14 -1 24 -10 13 -12 16 -21 9 -34 -5 -10
-6 -21 -2 -25 4 -5 2 -5 -5 -2 -6 4 -13 2 -15 -5 -2 -6 -13 -13 -24 -14 -20
-3 -22 0 -26 45 -1 11 -5 18 -9 15 -4 -2 -9 2 -12 8 -2 8 -8 9 -13 4 -5 -5 -4
-11 3 -13 8 -3 11 -15 8 -31 -5 -23 -4 -24 4 -7 9 18 10 18 10 -7 1 -14 -5
-29 -11 -32 -7 -2 8 -3 34 -1 25 1 51 6 57 10 6 3 11 2 11 -3 0 -5 14 -9 30
-8 17 1 30 5 30 9 0 4 9 16 20 27 11 11 20 28 20 38 0 10 5 23 12 30 7 7 8 12
3 12 -4 0 0 9 10 21 19 20 19 20 -9 10 -44 -17 -71 -13 -85 13 -7 13 -24 30
-37 37 -13 7 -24 16 -24 21 0 5 -5 6 -11 2 -9 -5 -10 1 -5 22 4 16 13 32 19
36 9 6 8 8 -2 8 -17 0 -6 13 14 16 8 1 11 -4 8 -12 -3 -8 -1 -14 5 -14 12 0
22 24 22 56 0 15 -6 24 -16 24 -8 0 -12 4 -9 10 9 14 23 9 57 -22z m-865 -91
c8 -6 10 -19 6 -36 -6 -23 -4 -24 10 -13 18 16 59 12 64 -5 3 -8 -11 -11 -44
-11 -56 1 -194 -27 -202 -41 -10 -15 -35 -16 -60 -2 -13 7 -36 11 -51 7 -19
-3 -33 0 -44 13 -22 24 -20 51 3 51 11 0 35 9 54 20 26 15 54 21 116 22 44 1
86 5 93 9 12 8 35 2 55 -14z m203 -37 c-13 -8 -13 -10 2 -10 21 0 53 -44 43
-60 -3 -5 -1 -10 5 -10 8 0 11 -14 8 -40 -2 -22 -1 -40 2 -40 17 0 51 34 46
47 -5 11 4 13 42 11 44 -3 47 -1 48 22 1 38 14 60 35 60 10 0 19 5 19 10 0 6
4 10 9 10 10 0 21 -47 12 -53 -3 -2 -1 -3 5 -1 14 3 47 -33 69 -76 14 -26 14
-34 3 -48 -11 -13 -11 -15 2 -8 8 4 7 1 -4 -8 -14 -11 -24 -13 -37 -5 -15 7
-17 6 -13 -6 4 -8 1 -15 -6 -15 -6 0 -8 -5 -4 -12 6 -10 4 -10 -7 -2 -8 6 -21
10 -29 9 -9 -1 -21 8 -27 22 -11 22 -10 23 10 17 12 -4 24 -11 25 -15 2 -5 8
-9 13 -9 6 0 7 6 2 13 -4 6 -8 14 -8 17 -1 12 -40 70 -47 70 -14 0 -9 -15 12
-38 11 -12 20 -23 20 -26 0 -2 -9 -2 -20 1 -11 3 -20 10 -20 16 0 6 -3 7 -7 3
-4 -3 -13 4 -20 16 -13 22 -13 22 -7 -6 l7 -30 -23 22 c-23 21 -40 28 -40 16
0 -11 28 -33 34 -27 3 3 4 -13 2 -36 -3 -28 -12 -47 -28 -60 -18 -16 -21 -22
-10 -32 18 -19 15 -46 -7 -61 -10 -7 -26 -31 -35 -52 -19 -45 -19 -49 -6 -41
6 3 7 -1 4 -9 -3 -9 -13 -16 -21 -16 -8 0 -12 -4 -9 -8 3 -5 -1 -9 -8 -9 -8 0
-12 6 -9 13 5 15 -19 44 -36 44 -7 0 -9 10 -5 24 4 18 1 26 -14 30 -11 4 -28
18 -37 32 -9 13 -19 23 -23 20 -12 -7 -12 47 -1 92 7 23 15 42 19 42 4 0 18
11 31 25 13 13 30 25 37 25 6 0 11 3 10 8 -1 4 4 19 11 34 11 22 11 29 0 41
-12 13 -18 11 -42 -16 -20 -23 -38 -32 -63 -34 -35 -2 -36 -1 -19 17 9 10 14
24 10 30 -9 15 28 50 63 60 38 11 50 11 32 0z m-180 -60 c8 -5 15 -20 15 -32
0 -17 5 -22 20 -20 15 2 16 0 7 -6 -8 -5 -12 -18 -10 -28 2 -12 -3 -19 -12
-18 -9 1 -17 -8 -18 -20 -2 -33 -41 -56 -96 -56 -53 0 -59 11 -7 12 37 1 38 9
6 76 -14 29 -25 58 -25 65 0 7 19 18 43 24 58 14 60 14 77 3z m571 -200 c15 0
10 -67 -6 -84 -19 -18 -19 -33 -1 -52 18 -17 26 -18 22 -1 -1 6 -1 9 1 4 3 -4
8 -5 12 -3 13 9 32 -11 25 -27 -5 -13 -10 -14 -32 -5 -15 6 -37 22 -49 35 -35
37 -59 30 -77 -24 -20 -58 -20 -67 -1 -59 8 3 15 1 15 -4 0 -5 8 -11 18 -13
13 -4 11 -5 -5 -6 -26 -1 -32 -35 -9 -44 9 -4 12 0 9 12 -6 22 26 33 51 19 14
-8 16 -6 10 17 -6 24 -4 26 17 23 13 -1 23 -6 22 -10 -2 -5 -3 -27 -3 -50 l0
-43 -50 -1 c-27 -1 -47 3 -44 8 3 4 -1 8 -9 8 -8 0 -20 7 -27 15 -7 8 -26 15
-42 15 -19 0 -40 10 -58 29 -16 16 -31 27 -33 24 -3 -2 -2 8 1 22 2 14 14 32
25 40 15 11 17 15 7 15 -12 1 -12 2 1 10 9 5 20 22 23 36 4 15 10 24 13 21 3
-4 14 4 23 16 16 20 22 21 50 10 27 -10 30 -10 20 3 -11 13 -7 18 13 15 4 0 7
4 7 9 0 6 10 10 23 10 18 0 19 2 7 11 -12 9 -12 10 3 5 10 -3 23 -6 28 -6z
m208 -17 c2 20 31 -24 31 -47 0 -30 14 -34 29 -8 8 14 11 14 12 2 2 -22 2 -23
-5 -47 -6 -17 -2 -22 15 -25 34 -5 34 -25 0 -33 -17 -4 -31 -11 -31 -16 0 -6
-4 -8 -9 -5 -5 4 -11 1 -13 -5 -4 -12 -58 -2 -58 12 0 5 -7 9 -15 9 -8 0 -15
5 -15 10 0 6 5 10 11 10 6 0 8 7 5 16 -3 8 -2 12 4 9 20 -12 32 7 15 25 -12
13 -13 23 -5 44 5 15 8 31 5 36 -3 4 -2 16 2 26 6 16 7 16 14 -2 4 -10 8 -15
8 -11z m-617 -233 c15 0 16 -4 8 -26 -14 -35 -12 -53 3 -28 9 17 17 20 35 13
12 -5 22 -15 22 -24 0 -8 5 -15 10 -15 14 0 12 -62 -3 -96 -13 -31 -28 -38
-57 -29 -15 5 -17 13 -12 47 4 31 2 39 -8 33 -9 -5 -10 -2 -5 14 4 15 -1 28
-19 45 -13 14 -23 33 -22 43 2 10 -2 22 -8 26 -6 5 0 6 14 3 14 -3 33 -6 42
-6z m-902 -309 c0 -22 -9 -37 -33 -55 -19 -15 -41 -26 -50 -26 -10 0 -17 -4
-17 -10 0 -19 -59 -11 -70 10 -7 13 -7 20 -1 20 6 0 7 7 4 17 -4 10 -2 14 4
10 6 -4 13 0 17 8 9 25 69 55 109 55 34 0 37 -2 37 -29z"/>
<path d="M2752 3878 c-17 -5 -34 -13 -37 -18 -3 -6 -27 -10 -53 -10 -37 0 -50
-5 -60 -20 -7 -12 -23 -25 -35 -30 -21 -8 -21 -9 5 -9 20 -1 36 -12 60 -46 36
-48 47 -55 49 -27 1 9 3 27 4 40 2 23 -5 28 -20 13 -6 -6 -15 -4 -23 5 -11 12
-9 14 13 15 14 1 30 3 35 4 6 1 16 3 24 4 8 0 21 7 28 14 25 26 57 37 102 37
25 0 46 4 46 8 0 14 -104 29 -138 20z"/>
<path d="M4065 3740 c-7 -11 8 -41 29 -59 8 -7 12 -20 9 -28 -4 -11 -2 -14 5
-9 7 4 12 1 12 -7 0 -8 16 -31 36 -53 20 -21 41 -50 46 -65 8 -24 48 -49 48
-30 0 4 25 9 55 10 30 1 55 -2 55 -6 0 -12 -73 -73 -88 -73 -7 0 -10 5 -7 10
3 6 1 10 -5 10 -7 0 -9 -8 -5 -21 5 -14 3 -19 -4 -15 -6 4 -13 -5 -17 -21 -5
-17 -3 -28 4 -31 7 -2 12 -10 12 -19 0 -33 306 12 348 52 11 10 6 20 -23 55
-20 24 -43 56 -50 71 -8 15 -26 36 -40 48 -15 11 -25 26 -24 33 3 27 -1 38
-17 38 -8 0 -13 4 -9 9 3 6 -24 7 -69 4 -73 -6 -73 -5 -105 27 -17 18 -31 39
-31 45 0 25 -151 48 -165 25z"/>
<path d="M3743 3492 c-3 -12 -10 -22 -15 -22 -5 0 -6 -4 -3 -10 3 -5 1 -10 -4
-10 -6 0 -11 -10 -12 -22 0 -22 -1 -22 -9 -3 -6 16 -9 12 -11 -20 -4 -35 -7
-41 -34 -45 -26 -5 -28 -7 -12 -16 14 -8 19 -25 21 -70 5 -97 5 -94 24 -88 13
5 14 4 3 -4 -11 -8 -11 -11 0 -16 8 -3 5 -4 -7 -1 -13 4 -21 0 -21 -9 0 -7 7
-13 16 -11 27 4 38 -17 33 -67 -4 -44 -3 -48 17 -48 13 0 21 -7 22 -17 0 -10
3 -13 5 -7 7 16 75 -17 69 -33 -5 -14 11 -18 19 -5 3 5 24 7 48 5 30 -2 50 3
67 16 l23 18 -31 0 c-20 0 -27 -3 -19 -9 9 -5 10 -8 1 -8 -6 0 -15 4 -18 10
-3 5 -19 8 -35 6 -17 -2 -30 1 -30 5 0 5 7 9 16 9 10 0 12 4 7 13 -4 6 -9 29
-9 50 -1 21 -9 46 -18 56 -21 23 -20 47 3 70 11 11 21 30 23 42 2 19 11 25 45
31 24 4 51 12 60 18 17 11 17 11 1 6 -10 -3 -18 -1 -18 4 0 5 -6 7 -14 4 -13
-5 -76 52 -76 69 0 5 -27 36 -61 69 -54 55 -61 59 -66 40z"/>
<path d="M4136 3348 c22 -39 68 -101 90 -123 13 -13 24 -28 24 -32 0 -4 12
-19 25 -32 14 -13 25 -29 25 -35 0 -7 14 -25 31 -42 l32 -29 -6 63 c-6 56 -5
62 12 62 10 0 24 7 31 15 7 8 19 15 28 15 8 0 20 7 27 17 11 15 14 15 38 -3
34 -25 34 -42 0 -47 -21 -4 -19 -4 7 -3 30 1 37 6 54 41 10 22 21 58 23 80 l5
40 -48 -4 -49 -5 43 -9 c50 -12 55 -32 10 -42 -45 -9 -79 -9 -174 0 l-81 8 4
-34 c1 -19 0 -27 -4 -19 -8 20 -56 84 -65 88 -5 2 -8 9 -8 17 0 7 -14 15 -31
19 -45 9 -51 8 -43 -6z"/>
<path d="M4601 2522 c-1 -7 -5 -10 -11 -7 -5 3 -10 2 -10 -4 0 -5 4 -13 10
-16 6 -4 4 -15 -6 -30 -14 -21 -14 -24 3 -34 17 -10 17 -10 -2 -11 -11 0 -27
5 -35 10 -10 6 -11 10 -2 10 6 0 12 5 12 11 0 8 -5 8 -15 -1 -21 -17 -19 -27
6 -33 12 -3 18 -10 14 -16 -3 -6 -1 -11 4 -11 6 0 11 5 11 10 0 6 8 10 18 9
10 0 12 -3 4 -6 -6 -2 -10 -9 -6 -14 3 -5 2 -9 -3 -8 -31 5 -32 -5 -3 -19 19
-9 35 -24 35 -32 0 -8 5 -18 10 -22 14 -11 65 -10 65 1 0 5 12 12 28 16 15 4
21 10 15 12 -7 3 -13 14 -13 24 0 11 -4 18 -9 14 -5 -3 -18 7 -29 22 -32 48
-34 53 -18 53 9 0 16 -6 16 -14 0 -8 9 -18 21 -21 27 -9 30 -4 13 19 -10 14
-14 16 -14 5 -1 -10 -3 -9 -11 4 -5 9 -18 17 -28 17 -11 0 -22 7 -25 16 -4 9
-9 14 -13 10 -4 -3 -12 6 -19 21 -7 16 -13 22 -13 15z"/>
</g>
</svg>
